<svg xmlns="http://www.w3.org/2000/svg" xml:space="preserve" viewBox="0 0 95 46" y="0" x="0" id="Calque_1" version="1.1"><style id="style2" type="text/css">.st0{fill:red}</style><g transform="translate(-20.711 -52.221) scale(.5217)" id="g20"><path id="polygon4" class="st0" fill="red" d="M78 109.9v-9.8H39.7v21.6h11.4v-11.8z"/><path id="polygon6" class="st0" fill="red" d="M51.1 143.3v-11.8H39.7V153H78v-9.7z"/><path id="rect8" class="st0" fill="red" d="M51.1 121.7h24.6v9.8H51.1z"/><path id="path10" d="M125.5 105c-1.5-1.5-3.3-2.6-5.7-3.5-2.3-.9-5.1-1.3-8.4-1.3H87.8V153h11.4v-21.6h12.2c3.3 0 6.1-.4 8.4-1.3 2.3-.9 4.2-2.1 5.7-3.5 1.5-1.5 2.5-3.1 3.2-5 .7-1.9 1-3.8 1-5.8s-.3-3.9-1-5.8c-.6-1.9-1.7-3.6-3.2-5zm-7.9 13.8c-.6.8-1.3 1.4-2.3 1.8-.9.4-2 .7-3.3.9-1.2.1-2.5.2-3.9.2h-9v-11.8h9c1.3 0 2.6.1 3.9.2 1.2.1 2.3.4 3.3.9.9.4 1.7 1 2.3 1.8.6.8.9 1.8.9 3s-.3 2.3-.9 3z" class="st0" fill="red"/><path id="polygon12" class="st0" fill="red" d="M183.5 153h38.3v-9.7h-26.9v-43.2h-11.4z"/><path id="polygon14" class="st0" fill="red" d="M175.3 109.9v-9.8H137v21.6h11.4v-11.8z"/><path id="rect16" class="st0" fill="red" d="M137 131.5h11.4v21.6H137z"/><path id="rect18" class="st0" fill="red" d="M148.4 121.7H173v9.8h-24.6z"/></g></svg>